# xmcd
#
# Track frame offsets:
#	150
#	14233
#	29513
#	49730
#	66501
#	86399
#	104935
#	119285
#	133652
#	148229
#
# Disc length: 2147 seconds
#
# Revision: 1
# Processed by: cddbd v1.5.2PL0 Copyright (c) Steve Scherf et al.
# Submitted via: audiograbber 1.83.01
#
DISCID=9e08610a
DTITLE=Hank Williams, Jr. - Habits Old and New
DYEAR=1980
DGENRE=Country
TTITLE0=Old Habits
TTITLE1=Dinasaur
TTITLE2=Kaw-Liga
TTITLE3=Here I Am Fallin' Again
TTITLE4=The Blues Man
TTITLE5=All In Alabama
TTITLE6=The American Way
TTITLE7=Move It On Over
TTITLE8=Won't It Be Nice
TTITLE9=If You Don't Like Hank Williams
EXTD=
EXTT0=
EXTT1=
EXTT2=
EXTT3=
EXTT4=
EXTT5=
EXTT6=
EXTT7=
EXTT8=
EXTT9=
PLAYORDER=
